<?xml version="1.0" encoding="utf-8"?>
<!-- Generator: Adobe Illustrator 21.0.0, SVG Export Plug-In . SVG Version: 6.00 Build 0)  -->
<svg version="1.1" id="Layer_1" xmlns="http://www.w3.org/2000/svg" xmlns:xlink="http://www.w3.org/1999/xlink" x="0px" y="0px"
	 viewBox="0 0 349.5 175.7" style="enable-background:new 0 0 349.5 175.7;" xml:space="preserve">
<style type="text/css">
	.st0{fill:#001D34;}
	.st1{fill:#7CB729;}
</style>
<g>
	<g>
		<path class="st0" d="M83.7,1.9l51.9,138.7H104l-10.5-30.9H41.6l-10.9,30.9H0L52.5,1.9H83.7z M85.5,87L68,36.1h-0.4L49.5,87H85.5z"
			/>
		<path class="st0" d="M161.4,170.5c-5.3,3.5-12.7,5.2-22.2,5.2c-2.9,0-5.7-0.1-8.5-0.3c-2.8-0.2-5.6-0.4-8.5-0.7V152l7.9,0l8.5,0
			c5.8-0.5,7.6-1.1,9.2-3.6c1.6-2.3,1.7-5.4,1.5-7.5c-0.2-2.2-0.7-3.8-1.5-6.6l-35.2-94.2h29.3l22.7,68.8h0.4l22-68.8h28.6
			l-42,112.9C170.9,161.1,166.7,167,161.4,170.5z"/>
		<path class="st0" d="M246,116.5c4.1,4,10.1,6,17.9,6c5.6,0,10.4-1.4,14.4-4.2c4-2.8,6.5-5.7,7.4-8.8h24.3
			c-3.9,12-9.8,20.7-17.9,25.8c-8,5.2-17.7,7.8-29.1,7.8c-7.9,0-15-1.3-21.4-3.8c-6.3-2.5-11.7-6.1-16.1-10.8
			c-4.4-4.7-7.8-10.2-10.2-16.7c-2.4-6.5-3.6-13.6-3.6-21.4c0-7.5,1.2-14.5,3.7-21c2.5-6.5,6-12.1,10.5-16.8
			c4.5-4.7,9.9-8.5,16.2-11.2c6.3-2.7,13.2-4.1,20.9-4.1c8.5,0,16,1.7,22.3,5c6.3,3.3,11.6,7.7,15.6,13.3c4.1,5.6,7,11.9,8.8,19
			c1.8,7.1,2.5,14.6,1.9,22.3h-72.5C239.5,106,241.8,112.5,246,116.5z M277.1,63.7c-3.3-3.6-8.3-5.4-15.1-5.4c-4.4,0-8.1,0.7-11,2.2
			c-2.9,1.5-5.2,3.3-7,5.5c-1.7,2.2-3,4.5-3.7,7c-0.7,2.5-1.1,4.7-1.3,6.6H284C282.7,72.6,280.4,67.3,277.1,63.7z"/>
	</g>
	<g>
		<path class="st1" d="M317,124.3c0-4.5,1.6-8.3,4.7-11.4c3.2-3.1,7-4.7,11.6-4.7c4.5,0,8.3,1.6,11.4,4.6c3.1,3.1,4.7,6.9,4.7,11.5
			s-1.6,8.4-4.7,11.6c-3.1,3.2-6.9,4.7-11.4,4.7c-4.5,0-8.3-1.6-11.5-4.8C318.6,132.5,317,128.7,317,124.3z"/>
		<path class="st1" d="M340,97.2h-13.8l-7.4-59.8V0l28.8,0v37.3L340,97.2z"/>
	</g>
</g>
</svg>
