<?xml version="1.0" encoding="UTF-8"?>
<svg width="60px" height="61px" viewBox="0 0 60 61" version="1.1" xmlns="http://www.w3.org/2000/svg" xmlns:xlink="http://www.w3.org/1999/xlink">
    <!-- Generator: Sketch 43.2 (39069) - http://www.bohemiancoding.com/sketch -->
    <title>Arrow-up-circle - simple-line-icons</title>
    <desc>Created with Sketch.</desc>
    <defs></defs>
    <g id="Symbols" stroke="none" stroke-width="1" fill="none" fill-rule="evenodd">
        <g id="//-FOOTER-//" transform="translate(-1017.000000, -351.000000)" fill="#273A50">
            <g id="::-back-to-top" transform="translate(1017.000000, 352.000000)">
                <path d="M60,29.75 C60,33.8906457 59.2187578,37.7870911 57.65625,41.4394531 C56.0937422,45.0918151 53.9550917,48.2753771 51.2402344,50.9902344 C48.5253771,53.7050917 45.3418151,55.8437422 41.6894531,57.40625 C38.0370911,58.9687578 34.1406457,59.75 30,59.75 C25.8593543,59.75 21.9629089,58.9687578 18.3105469,57.40625 C14.6581849,55.8437422 11.4746229,53.7050917 8.75976562,50.9902344 C6.0449083,48.2753771 3.90625781,45.0918151 2.34375,41.4394531 C0.781242188,37.7870911 0,33.8906457 0,29.75 C0,25.6093543 0.781242188,21.7129089 2.34375,18.0605469 C3.90625781,14.4081849 6.0449083,11.2246229 8.75976562,8.50976562 C11.4746229,5.7949083 14.6581849,3.65625781 18.3105469,2.09375 C21.9629089,0.531242187 25.8593543,-0.25 30,-0.25 C34.1406457,-0.25 38.0370911,0.531242187 41.6894531,2.09375 C45.3418151,3.65625781 48.5253771,5.7949083 51.2402344,8.50976562 C53.9550917,11.2246229 56.0937422,14.4081849 57.65625,18.0605469 C59.2187578,21.7129089 60,25.6093543 60,29.75 Z M3.69140625,29.75 C3.69140625,33.3828307 4.38475869,36.7909997 5.77148438,39.9746094 C7.15821006,43.158219 9.04295684,45.9316288 11.4257812,48.2949219 C13.8086057,50.6582149 16.591781,52.5331962 19.7753906,53.9199219 C22.9590003,55.3066476 26.3671693,56 30,56 C33.6328307,56 37.0409997,55.3066476 40.2246094,53.9199219 C43.408219,52.5331962 46.1816288,50.6582149 48.5449219,48.2949219 C50.9082149,45.9316288 52.7831962,43.158219 54.1699219,39.9746094 C55.5566476,36.7909997 56.25,33.3828307 56.25,29.75 C56.25,26.1171693 55.5566476,22.7090003 54.1699219,19.5253906 C52.7831962,16.341781 50.9082149,13.5683712 48.5449219,11.2050781 C46.1816288,8.84178506 43.408219,6.96680381 40.2246094,5.58007812 C37.0409997,4.19335244 33.6328307,3.5 30,3.5 C26.3671693,3.5 22.9590003,4.19335244 19.7753906,5.58007812 C16.591781,6.96680381 13.8086057,8.84178506 11.4257812,11.2050781 C9.04295684,13.5683712 7.15821006,16.341781 5.77148438,19.5253906 C4.38475869,22.7090003 3.69140625,26.1171693 3.69140625,29.75 Z M31.875,42.875 C31.875,43.4218777 31.6992205,43.871092 31.3476562,44.2226562 C30.996092,44.5742205 30.5468777,44.75 30,44.75 C29.492185,44.75 29.0527362,44.5742205 28.6816406,44.2226562 C28.310545,43.871092 28.125,43.4218777 28.125,42.875 L28.125,21.6640625 L21.2695312,28.578125 C20.8789043,28.9296893 20.42969,29.1054688 19.921875,29.1054688 C19.41406,29.1054688 18.9648457,28.9296893 18.5742188,28.578125 C18.417968,28.3828115 18.2910161,28.1679699 18.1933594,27.9335938 C18.0957026,27.6992176 18.046875,27.4648449 18.046875,27.2304688 C18.046875,26.9960926 18.0957026,26.7617199 18.1933594,26.5273438 C18.2910161,26.2929676 18.417968,26.078126 18.5742188,25.8828125 L29.9414062,14.8085938 L41.3085938,25.8828125 C41.6992207,26.2734395 41.8945312,26.7226537 41.8945312,27.2304688 C41.8945312,27.7382838 41.6992207,28.187498 41.3085938,28.578125 C40.9570295,28.9296893 40.5175808,29.1054688 39.9902344,29.1054688 C39.462888,29.1054688 39.0234393,28.9296893 38.671875,28.578125 L31.875,21.78125 L31.875,42.875 Z" id="Arrow-up-circle---simple-line-icons"></path>
            </g>
        </g>
    </g>
</svg>