<?xml version="1.0" encoding="UTF-8"?>
<svg width="40px" height="33px" viewBox="0 0 40 33" version="1.1" xmlns="http://www.w3.org/2000/svg" xmlns:xlink="http://www.w3.org/1999/xlink">
    <!-- Generator: Sketch 43.2 (39069) - http://www.bohemiancoding.com/sketch -->
    <title>Bars - FontAwesome</title>
    <desc>Created with Sketch.</desc>
    <defs></defs>
    <g id="Mobile" stroke="none" stroke-width="1" fill="none" fill-rule="evenodd">
        <g id="Home" transform="translate(-241.000000, -49.000000)" fill="#982836">
            <g id="//-HEADER-//" transform="translate(0.000000, 16.000000)">
                <path d="M280.428571,61.0714286 L280.428571,64.3571429 C280.428571,64.8020856 280.265999,65.1871264 279.940848,65.5122768 C279.615698,65.8374272 279.230657,66 278.785714,66 L242.642857,66 C242.197914,66 241.812874,65.8374272 241.487723,65.5122768 C241.162573,65.1871264 241,64.8020856 241,64.3571429 L241,61.0714286 C241,60.6264859 241.162573,60.2414451 241.487723,59.9162946 C241.812874,59.5911442 242.197914,59.4285714 242.642857,59.4285714 L278.785714,59.4285714 C279.230657,59.4285714 279.615698,59.5911442 279.940848,59.9162946 C280.265999,60.2414451 280.428571,60.6264859 280.428571,61.0714286 Z M280.428571,47.9285714 L280.428571,51.2142857 C280.428571,51.6592284 280.265999,52.0442692 279.940848,52.3694196 C279.615698,52.6945701 279.230657,52.8571429 278.785714,52.8571429 L242.642857,52.8571429 C242.197914,52.8571429 241.812874,52.6945701 241.487723,52.3694196 C241.162573,52.0442692 241,51.6592284 241,51.2142857 L241,47.9285714 C241,47.4836287 241.162573,47.0985879 241.487723,46.7734375 C241.812874,46.4482871 242.197914,46.2857143 242.642857,46.2857143 L278.785714,46.2857143 C279.230657,46.2857143 279.615698,46.4482871 279.940848,46.7734375 C280.265999,47.0985879 280.428571,47.4836287 280.428571,47.9285714 Z M280.428571,34.7857143 L280.428571,38.0714286 C280.428571,38.5163713 280.265999,38.9014121 279.940848,39.2265625 C279.615698,39.5517129 279.230657,39.7142857 278.785714,39.7142857 L242.642857,39.7142857 C242.197914,39.7142857 241.812874,39.5517129 241.487723,39.2265625 C241.162573,38.9014121 241,38.5163713 241,38.0714286 L241,34.7857143 C241,34.3407716 241.162573,33.9557308 241.487723,33.6305804 C241.812874,33.3054299 242.197914,33.1428571 242.642857,33.1428571 L278.785714,33.1428571 C279.230657,33.1428571 279.615698,33.3054299 279.940848,33.6305804 C280.265999,33.9557308 280.428571,34.3407716 280.428571,34.7857143 Z" id="Bars---FontAwesome"></path>
            </g>
        </g>
    </g>
</svg>