<?xml version="1.0" encoding="UTF-8"?>
<svg width="32px" height="32px" viewBox="0 0 32 32" version="1.1" xmlns="http://www.w3.org/2000/svg" xmlns:xlink="http://www.w3.org/1999/xlink">
    <!-- Generator: Sketch 43.2 (39069) - http://www.bohemiancoding.com/sketch -->
    <title>Times - FontAwesome</title>
    <desc>Created with Sketch.</desc>
    <defs></defs>
    <g id="Mobile" stroke="none" stroke-width="1" fill="none" fill-rule="evenodd">
        <g id="Home_Nav" transform="translate(-246.000000, -49.000000)" fill="#982836">
            <g id="//-HEADER-//" transform="translate(0.000000, 16.000000)">
                <path d="M277.319196,58.5066964 C277.319196,59.1912237 277.079615,59.7730631 276.600446,60.2522321 L273.109375,63.7433036 C272.630206,64.2224726 272.048367,64.4620536 271.363839,64.4620536 C270.679312,64.4620536 270.097473,64.2224726 269.618304,63.7433036 L262.071429,56.1964286 L254.524554,63.7433036 C254.045385,64.2224726 253.463545,64.4620536 252.779018,64.4620536 C252.094491,64.4620536 251.512651,64.2224726 251.033482,63.7433036 L247.542411,60.2522321 C247.063242,59.7730631 246.823661,59.1912237 246.823661,58.5066964 C246.823661,57.8221692 247.063242,57.2403298 247.542411,56.7611607 L255.089286,49.2142857 L247.542411,41.6674107 C247.063242,41.1882417 246.823661,40.6064022 246.823661,39.921875 C246.823661,39.2373478 247.063242,38.6555083 247.542411,38.1763393 L251.033482,34.6852679 C251.512651,34.2060988 252.094491,33.9665179 252.779018,33.9665179 C253.463545,33.9665179 254.045385,34.2060988 254.524554,34.6852679 L262.071429,42.2321429 L269.618304,34.6852679 C270.097473,34.2060988 270.679312,33.9665179 271.363839,33.9665179 C272.048367,33.9665179 272.630206,34.2060988 273.109375,34.6852679 L276.600446,38.1763393 C277.079615,38.6555083 277.319196,39.2373478 277.319196,39.921875 C277.319196,40.6064022 277.079615,41.1882417 276.600446,41.6674107 L269.053571,49.2142857 L276.600446,56.7611607 C277.079615,57.2403298 277.319196,57.8221692 277.319196,58.5066964 Z" id="Times---FontAwesome"></path>
            </g>
        </g>
    </g>
</svg>