<?xml version="1.0" encoding="UTF-8"?>
<svg width="60px" height="60px" viewBox="0 0 60 60" version="1.1" xmlns="http://www.w3.org/2000/svg" xmlns:xlink="http://www.w3.org/1999/xlink">
    <!-- Generator: Sketch 43.2 (39069) - http://www.bohemiancoding.com/sketch -->
    <title>Group 2</title>
    <desc>Created with Sketch.</desc>
    <defs></defs>
    <g id="Symbols" stroke="none" stroke-width="1" fill="none" fill-rule="evenodd">
        <g id="//-FOOTER-//" transform="translate(-811.000000, -352.000000)" fill="#273A50">
            <g id="::-fb" transform="translate(811.000000, 352.000000)">
                <g id="Group-2">
                    <path d="M60,30 C60,34.1406457 59.2187578,38.0370911 57.65625,41.6894531 C56.0937422,45.3418151 53.9550917,48.5253771 51.2402344,51.2402344 C48.5253771,53.9550917 45.3418151,56.0937422 41.6894531,57.65625 C38.0370911,59.2187578 34.1406457,60 30,60 C25.8593543,60 21.9629089,59.2187578 18.3105469,57.65625 C14.6581849,56.0937422 11.4746229,53.9550917 8.75976562,51.2402344 C6.0449083,48.5253771 3.90625781,45.3418151 2.34375,41.6894531 C0.781242187,38.0370911 0,34.1406457 0,30 C0,25.8593543 0.781242187,21.9629089 2.34375,18.3105469 C3.90625781,14.6581849 6.0449083,11.4746229 8.75976562,8.75976562 C11.4746229,6.0449083 14.6581849,3.90625781 18.3105469,2.34375 C21.9629089,0.781242187 25.8593543,0 30,0 C34.1406457,0 38.0370911,0.781242187 41.6894531,2.34375 C45.3418151,3.90625781 48.5253771,6.0449083 51.2402344,8.75976562 C53.9550917,11.4746229 56.0937422,14.6581849 57.65625,18.3105469 C59.2187578,21.9629089 60,25.8593543 60,30 Z M3.69140625,30 C3.69140625,33.6328307 4.38475869,37.0409997 5.77148438,40.2246094 C7.15821006,43.408219 9.04295684,46.1816288 11.4257812,48.5449219 C13.8086057,50.9082149 16.591781,52.7831962 19.7753906,54.1699219 C22.9590003,55.5566476 26.3671693,56.25 30,56.25 C33.6328307,56.25 37.0409997,55.5566476 40.2246094,54.1699219 C43.408219,52.7831962 46.1816288,50.9082149 48.5449219,48.5449219 C50.9082149,46.1816288 52.7831962,43.408219 54.1699219,40.2246094 C55.5566476,37.0409997 56.25,33.6328307 56.25,30 C56.25,26.3671693 55.5566476,22.9590003 54.1699219,19.7753906 C52.7831962,16.591781 50.9082149,13.8183712 48.5449219,11.4550781 C46.1816288,9.09178506 43.408219,7.21680381 40.2246094,5.83007812 C37.0409997,4.44335244 33.6328307,3.75 30,3.75 C26.3671693,3.75 22.9590003,4.44335244 19.7753906,5.83007812 C16.591781,7.21680381 13.8086057,9.09178506 11.4257812,11.4550781 C9.04295684,13.8183712 7.15821006,16.591781 5.77148438,19.7753906 C4.38475869,22.9590003 3.69140625,26.3671693 3.69140625,30 Z" id="outline"></path>
                    <text id="facebook---FontAwesome" font-family="FontAwesome" font-size="24" font-weight="normal">
                        <tspan x="23.1428571" y="39"></tspan>
                    </text>
                </g>
            </g>
        </g>
    </g>
</svg>