<svg xmlns="http://www.w3.org/2000/svg" viewBox="0 0 161.57 67.78"><defs><style>.cls-1,.cls-3{fill:#273a51;}.cls-2{fill:#982836;}.cls-2,.cls-3{fill-rule:evenodd;}</style></defs><title>Asset 1</title><g id="Layer_2" data-name="Layer 2"><g id="Layer_1-2" data-name="Layer 1"><path class="cls-1" d="M6.16,60a.43.43,0,0,0-.48-.48h-2a.43.43,0,0,0-.48.48v1c0,.31.17.41.48.48l2.61.56c1.09.24,2,.9,2,2v1.82a1.9,1.9,0,0,1-2,2H3.16a1.9,1.9,0,0,1-2-2V64.5h2v.9a.43.43,0,0,0,.48.48H5.79a.43.43,0,0,0,.48-.48V64.33c0-.31-.17-.41-.48-.48l-2.6-.56c-1.09-.24-2-.9-2-2V59.57a1.9,1.9,0,0,1,2-2h3a1.9,1.9,0,0,1,2,2v1.18h-2Z"/><path class="cls-1" d="M23,57.63v1.91H18.41v2.07h3.71v1.91H18.41v2.3H23v1.91h-6.6V57.63Z"/><path class="cls-1" d="M36.22,67.72,34.59,64H33v3.74H31V57.63h5.14a1.9,1.9,0,0,1,2,2V62a1.88,1.88,0,0,1-1.37,1.91l1.68,3.82ZM36.06,60a.43.43,0,0,0-.48-.48H33V62.1h2.62a.43.43,0,0,0,.48-.48Z"/><path class="cls-1" d="M50.61,67.72H48.26L45.19,57.63h2.3l1.95,7.66,2-7.66h2.24Z"/><path class="cls-1" d="M61.22,57.63h2V67.72h-2Z"/><path class="cls-1" d="M76.55,60a.43.43,0,0,0-.48-.48H73.89a.43.43,0,0,0-.48.48v5.43a.43.43,0,0,0,.48.48h2.19a.43.43,0,0,0,.48-.48V64.16h2v1.63a1.9,1.9,0,0,1-2,2H73.38a1.9,1.9,0,0,1-2-2V59.57a1.9,1.9,0,0,1,2-2h3.19a1.9,1.9,0,0,1,2,2v1.63h-2Z"/><path class="cls-1" d="M93.14,57.63v1.91H88.56v2.07h3.71v1.91H88.56v2.3h4.58v1.91h-6.6V57.63Z"/><path class="cls-1" d="M105.7,60a.43.43,0,0,0-.48-.48h-2a.43.43,0,0,0-.48.48v1c0,.31.17.41.48.48l2.61.56c1.09.24,2,.9,2,2v1.82a1.9,1.9,0,0,1-2,2H102.7a1.9,1.9,0,0,1-2-2V64.5h2v.9a.43.43,0,0,0,.48.48h2.19a.43.43,0,0,0,.48-.48V64.33c0-.31-.17-.41-.48-.48l-2.6-.56c-1.09-.24-2-.9-2-2V59.57a1.9,1.9,0,0,1,2-2h3a1.9,1.9,0,0,1,2,2v1.18h-2Z"/><path class="cls-1" d="M127.83,57.63v8.18h4.23v1.91h-6.25V57.63Z"/><path class="cls-1" d="M142.41,59.51v8.21h-2V59.51h-2.63V57.63H145v1.88Z"/><path class="cls-1" d="M158.07,57.63a1.9,1.9,0,0,1,2,2v6.11a1.9,1.9,0,0,1-2,2h-5.25V57.63Zm-.5,8.18a.43.43,0,0,0,.48-.48V60a.43.43,0,0,0-.48-.48h-2.73v6.28Z"/><path class="cls-2" d="M151.32,31.16V47.72h10.26V44.59h-6.95V31.16Zm-9.48,3.63L140,40.87h3.54ZM139.13,44,138,47.72H134.6l5.34-16.56h3.86l5.34,16.56h-3.57L144.49,44Zm-9.64-6.28V35.07a.7.7,0,0,0-.78-.78h-4.3V38.5h4.3A.7.7,0,0,0,129.49,37.72Zm3.82,10h-3.57l-2.67-6.14h-2.67v6.14h-3.31V31.16h8.44a3.11,3.11,0,0,1,3.27,3.27v3.89a3.08,3.08,0,0,1-2.25,3.13ZM117.71,31.16H114.4V43.9a.7.7,0,0,1-.78.78H110a.7.7,0,0,1-.78-.78V31.16h-3.31V44.55a3.11,3.11,0,0,0,3.27,3.27h5.29a3.11,3.11,0,0,0,3.27-3.27Zm-14,3.08H99.43V47.72H96.12V34.24H91.79V31.16h12ZM82.34,31.16h3.31V44.59H92.6v3.13H82.34Zm-3.38,0H75.65V43.9a.7.7,0,0,1-.78.78H71.23a.7.7,0,0,1-.78-.78V31.16H67.14V44.55a3.11,3.11,0,0,0,3.27,3.27h5.29A3.11,3.11,0,0,0,79,44.55ZM61.13,37h3.31V34.33a3.11,3.11,0,0,0-3.27-3.27H55.94a3.11,3.11,0,0,0-3.27,3.27V44.55a3.11,3.11,0,0,0,3.27,3.27h5.24a3.11,3.11,0,0,0,3.27-3.27V41.88H61.13v2a.7.7,0,0,1-.78.78H56.76A.7.7,0,0,1,56,43.9V35a.7.7,0,0,1,.78-.78h3.59a.7.7,0,0,1,.78.78Zm-15,10.72h3.31V31.16H46.12Zm-6.56-10V35.07a.7.7,0,0,0-.78-.78h-4.3V38.5h4.3A.7.7,0,0,0,39.56,37.72Zm3.82,10H39.81l-2.67-6.14H34.48v6.14H31.17V31.16h8.44a3.11,3.11,0,0,1,3.27,3.27v3.89a3.08,3.08,0,0,1-2.25,3.13ZM24.68,36.5H28V34.33a3.11,3.11,0,0,0-3.27-3.27H19.27A3.11,3.11,0,0,0,16,34.33V44.55a3.11,3.11,0,0,0,3.27,3.27h5.45A3.11,3.11,0,0,0,28,44.55V38.45H21.64v3h3V43.9a.7.7,0,0,1-.78.78H20.1a.7.7,0,0,1-.78-.78V35a.7.7,0,0,1,.78-.78h3.8a.7.7,0,0,1,.78.78ZM7.24,34.79,5.45,40.87H9ZM4.53,44l-1.1,3.73H0L5.34,31.16H9.2l5.34,16.56H11L9.89,44Z"/><path class="cls-3" d="M155.42.12V14.85L147.47.12h-4.65v21.6h4.05V7l7.95,14.73h4.65V.12Zm-21.06,7h4.32V4.26A4.06,4.06,0,0,0,134.42,0h-7.11a4.06,4.06,0,0,0-4.26,4.26V17.58a4.06,4.06,0,0,0,4.26,4.26h7.11a4.06,4.06,0,0,0,4.26-4.26v-8H130.4v3.9h4v3.21a.92.92,0,0,1-1,1h-5a.92.92,0,0,1-1-1V5.1a.92.92,0,0,1,1-1h5a.92.92,0,0,1,1,1ZM114.5,21.72h4.32V.12H114.5ZM96.56.12v21.6h14.13V17.64h-9.81V12.72h7.95V8.64h-7.95V4.2h9.81V.12ZM88,8.67V5.22a.92.92,0,0,0-1-1H81.38V9.69H87A.92.92,0,0,0,88,8.67Zm5,13H88.34l-3.48-8H81.38v8H77.06V.12h11a4.06,4.06,0,0,1,4.26,4.26V9.45a4,4,0,0,1-2.94,4.08ZM59.12.12v21.6H73.25V17.64H63.44V12.72h8V8.64h-8V4.2h9.81V.12Zm-2.91,0h-4.8L47.12,16.53,43,.12H38l6.57,21.6h5ZM31.67,16.74V5.1a.92.92,0,0,0-1-1H25.58a.92.92,0,0,0-1,1V16.74a.92.92,0,0,0,1,1h5.07A.92.92,0,0,0,31.67,16.74ZM24.5,0h7.23A4.06,4.06,0,0,1,36,4.26V17.58a4.06,4.06,0,0,1-4.26,4.26H24.5a4.06,4.06,0,0,1-4.26-4.26V4.26A4.06,4.06,0,0,1,24.5,0ZM12.08,6.78h4.2V4.26A4.06,4.06,0,0,0,12,0H5.66A4.06,4.06,0,0,0,1.4,4.26V7.92c0,2.4,2,3.81,4.32,4.32l5.58,1.2c.66.15,1,.36,1,1v2.28a.92.92,0,0,1-1,1H6.62a.92.92,0,0,1-1-1V14.82H1.4v2.76a4.06,4.06,0,0,0,4.26,4.26h6.72a4.06,4.06,0,0,0,4.26-4.26v-3.9c0-2.4-2-3.81-4.32-4.32L6.74,8.16c-.66-.15-1-.36-1-1v-2a.92.92,0,0,1,1-1h4.32a.92.92,0,0,1,1,1Z"/></g></g></svg>