<svg xmlns="http://www.w3.org/2000/svg" viewBox="0 0 566.93 237.74"><defs><style>.cls-1{fill:#273a51;}.cls-2{fill:#992937;}</style></defs><title>Asset 1</title><g id="Layer_2" data-name="Layer 2"><g id="Layer_1-2" data-name="Layer 1"><path class="cls-1" d="M142,210.33a1.5,1.5,0,0,0-1.67-1.67h-7.08a1.5,1.5,0,0,0-1.67,1.67v3.34c0,1.08.59,1.43,1.67,1.67l9.14,2c3.83.84,7.08,3.14,7.08,7.08v6.39a6.65,6.65,0,0,1-7,7h-11a6.65,6.65,0,0,1-7-7v-4.52h6.88v3.14a1.51,1.51,0,0,0,1.67,1.67h7.66a1.51,1.51,0,0,0,1.67-1.67v-3.73c0-1.08-.59-1.43-1.67-1.67l-9.14-2c-3.83-.83-7.08-3.14-7.08-7.07v-6a6.65,6.65,0,0,1,7-7h10.42a6.66,6.66,0,0,1,7,7v4.13H142Zm37.33-8.16v6.68H163.24v7.27h13v6.68h-13v8.06h16.07v6.68H156.16V202.17ZM204,237.55l-5.7-13.12h-5.7v13.12h-7.08V202.17h18a6.65,6.65,0,0,1,7,7v8.3a6.58,6.58,0,0,1-4.81,6.68l5.9,13.41Zm-.54-27a1.5,1.5,0,0,0-1.67-1.67h-9.19v9h9.19a1.5,1.5,0,0,0,1.67-1.67Zm30,27h-8.25l-10.76-35.38h8.06l6.83,26.88,7-26.88h7.86ZM249,202.17h7.08v35.38H249Zm32.08,8.16a1.5,1.5,0,0,0-1.67-1.67h-7.66a1.5,1.5,0,0,0-1.67,1.67v19.06a1.51,1.51,0,0,0,1.67,1.67h7.66a1.51,1.51,0,0,0,1.67-1.67v-4.32h7.08v5.7a6.65,6.65,0,0,1-7,7H270a6.65,6.65,0,0,1-7-7V209a6.65,6.65,0,0,1,7-7h11.2a6.66,6.66,0,0,1,7,7v5.7h-7.08Zm36.49-8.16v6.68H301.48v7.27h13v6.68h-13v8.06h16.07v6.68H294.41V202.17Zm22.73,8.16a1.5,1.5,0,0,0-1.67-1.67h-7.08a1.5,1.5,0,0,0-1.67,1.67v3.34c0,1.08.59,1.43,1.67,1.67l9.14,2c3.83.84,7.08,3.14,7.08,7.08v6.39a6.65,6.65,0,0,1-7,7h-11a6.65,6.65,0,0,1-7-7v-4.52h6.88v3.14a1.51,1.51,0,0,0,1.67,1.67H339a1.51,1.51,0,0,0,1.67-1.67v-3.73c0-1.08-.59-1.43-1.67-1.67l-9.14-2c-3.83-.83-7.08-3.14-7.08-7.07v-6a6.65,6.65,0,0,1,7-7h10.42a6.66,6.66,0,0,1,7,7v4.13h-6.88Zm34.22-8.16v28.7h14.84v6.68H367.43V202.17Zm33.84,6.59v28.79h-7.08V208.76H392v-6.59h25.55v6.59Zm32.76-6.59a6.66,6.66,0,0,1,7,7v21.42a6.66,6.66,0,0,1-7,7H422.68V202.17Zm-1.77,28.7A1.5,1.5,0,0,0,441,229.2V210.52a1.5,1.5,0,0,0-1.67-1.67h-9.58v22Z"/><path class="cls-1" d="M42.38,17.89a3.22,3.22,0,0,0-3.58-3.58H23.65a3.22,3.22,0,0,0-3.58,3.58V25c0,2.31,1.26,3.05,3.58,3.58l19.57,4.21C51.43,34.62,58.38,39.57,58.38,48V61.67c0,8.84-6.1,14.94-14.94,14.94H19.86C11,76.61,4.92,70.5,4.92,61.67V52H19.65v6.73a3.22,3.22,0,0,0,3.58,3.58H39.64a3.22,3.22,0,0,0,3.58-3.58v-8c0-2.32-1.26-3.05-3.58-3.58L20.07,42.93C11.86,41.15,4.92,36.2,4.92,27.78V14.94C4.92,6.1,11,0,19.86,0H42.17C51,0,57.11,6.1,57.11,14.94v8.84H42.38ZM111.31,0c8.84,0,14.94,6.1,14.94,14.94V61.67c0,8.84-6.1,14.94-14.94,14.94H85.95C77.11,76.61,71,70.5,71,61.67V14.94C71,6.1,77.11,0,85.95,0Zm-.21,17.89a3.22,3.22,0,0,0-3.58-3.58H89.74a3.22,3.22,0,0,0-3.58,3.58V58.72a3.22,3.22,0,0,0,3.58,3.58h17.78a3.22,3.22,0,0,0,3.58-3.58Zm63.14,58.3H156.56L133.52.42h17.26L165.4,58l15-57.56h16.84ZM257.06.42V14.73H222.65V30.31h27.89V44.62H222.65V61.87h34.41V76.19H207.5V.42ZM310,76.19l-12.21-28.1H285.58v28.1H270.43V.42H309C317.89.42,324,6.52,324,15.36V33.15c0,7.16-4,12.52-10.31,14.31l12.63,28.73Zm-1.16-57.88a3.22,3.22,0,0,0-3.58-3.58H285.58V34h19.68a3.22,3.22,0,0,0,3.58-3.58ZM388.4.42V14.73H354V30.31h27.88V44.62H354V61.87H388.4V76.19H338.83V.42Zm13.37,0h15.15V76.19H401.76Zm69.66,17.47a3.22,3.22,0,0,0-3.58-3.58H450.48a3.22,3.22,0,0,0-3.58,3.58V58.72a3.22,3.22,0,0,0,3.58,3.58h17.36a3.22,3.22,0,0,0,3.58-3.58V47.46H457.53V33.78h29V61.67c0,8.84-6.1,14.94-14.94,14.94H446.69c-8.84,0-14.94-6.1-14.94-14.94V14.94C431.75,6.1,437.86,0,446.69,0h24.94c8.84,0,14.94,6.1,14.94,14.94v9.89H471.42ZM559.51.42V76.19H543.2L515.31,24.52V76.19H501.1V.42h16.31L545.3,52.09V.42Z"/><path class="cls-2" d="M12,167.39H0l18.71-58.08H32.26L51,167.39H38.48l-3.79-13.07H15.89Zm7.1-24H31.54l-6.13-21.29ZM86.64,122.7A2.47,2.47,0,0,0,83.9,120H70.59a2.47,2.47,0,0,0-2.74,2.74V154a2.47,2.47,0,0,0,2.74,2.74H83.9A2.47,2.47,0,0,0,86.64,154v-8.63H76V134.89H98.26v21.38c0,6.77-4.68,11.45-11.46,11.45H67.69c-6.78,0-11.45-4.68-11.45-11.45V120.45c0-6.78,4.68-11.46,11.45-11.46H86.8c6.78,0,11.46,4.68,11.46,11.46V128H86.64Zm53.09,44.69-9.36-21.54H121v21.54H109.4V109.31H139c6.78,0,11.45,4.68,11.45,11.46V134.4c0,5.49-3.06,9.6-7.9,11l9.68,22ZM138.84,123a2.47,2.47,0,0,0-2.74-2.74H121V135H136.1a2.47,2.47,0,0,0,2.74-2.74Zm23-13.71h11.62v58.08H161.84Zm52.68,13.39a2.47,2.47,0,0,0-2.74-2.74H199.2a2.47,2.47,0,0,0-2.74,2.74V154a2.47,2.47,0,0,0,2.74,2.74h12.58a2.47,2.47,0,0,0,2.74-2.74v-7.1h11.62v9.36c0,6.77-4.68,11.45-11.45,11.45H196.29c-6.78,0-11.45-4.68-11.45-11.45V120.45c0-6.78,4.68-11.46,11.45-11.46h18.39c6.77,0,11.45,4.68,11.45,11.46v9.36H214.52ZM277,156.26c0,6.77-4.68,11.45-11.46,11.45H247c-6.78,0-11.46-4.68-11.46-11.45V109.31H247.2V154a2.47,2.47,0,0,0,2.74,2.74h12.75a2.47,2.47,0,0,0,2.74-2.74V109.31H277Zm23.48-46.95v47.11h24.36v11h-36V109.31Zm48.4,10.81v47.27H337.32V120.12H322.15V109.31H364.1v10.81Zm64.14,36.14c0,6.77-4.68,11.45-11.46,11.45H383.06c-6.78,0-11.46-4.68-11.46-11.45V109.31h11.62V154a2.47,2.47,0,0,0,2.74,2.74h12.75a2.47,2.47,0,0,0,2.74-2.74V109.31h11.62Zm42.2,11.13-9.36-21.54h-9.36v21.54H424.94V109.31h29.6c6.78,0,11.45,4.68,11.45,11.46V134.4c0,5.49-3.06,9.6-7.9,11l9.68,22ZM454.38,123a2.47,2.47,0,0,0-2.74-2.74H436.56V135h15.08a2.47,2.47,0,0,0,2.74-2.74Zm29.94,44.37h-12L491,109.31h13.55l18.71,58.08h-12.5L507,154.32H488.19Zm7.1-24h12.42l-6.13-21.29Zm51.15-34v47.11h24.36v11H531V109.31Z"/></g></g></svg>