<svg id="Layer_2" data-name="Layer 2" xmlns="http://www.w3.org/2000/svg" xmlns:xlink="http://www.w3.org/1999/xlink" viewBox="0 0 1088.15 1228.03"><defs><style>.cls-1,.cls-11,.cls-2,.cls-4,.cls-5,.cls-6,.cls-7{fill:none;}.cls-2{stroke:#b2b2b2;}.cls-2,.cls-4,.cls-5,.cls-8{stroke-width:0.25px;}.cls-3,.cls-9{fill:#1d1d1b;}.cls-3{stroke:#1d1d1b;}.cls-11,.cls-3,.cls-5{stroke-miterlimit:10;}.cls-3,.cls-6,.cls-7{stroke-width:0.75px;}.cls-10,.cls-4,.cls-5,.cls-7,.cls-8,.cls-9{stroke:#fff;}.cls-6{stroke:#bf3917;}.cls-7{stroke-dasharray:2 2;}.cls-10,.cls-8{fill:url(#New_Pattern);}.cls-11{stroke:#39ab4d;stroke-dasharray:2 2;}</style><pattern id="New_Pattern" data-name="New Pattern" width="20" height="32.21" patternUnits="userSpaceOnUse" viewBox="0 0 20 32.21"><rect class="cls-1" width="20" height="32.21"/><line class="cls-2" x1="-18.79" y1="106" x2="69.99" y2="17.22"/><line class="cls-2" x1="82.79" y1="111.61" x2="-5.99" y2="22.83"/><line class="cls-2" x1="-22.79" y1="106" x2="65.99" y2="17.22"/><line class="cls-2" x1="78.79" y1="111.61" x2="-9.99" y2="22.83"/><line class="cls-2" x1="-26.79" y1="106" x2="61.99" y2="17.22"/><line class="cls-2" x1="74.79" y1="111.61" x2="-13.99" y2="22.83"/><line class="cls-2" x1="-30.79" y1="106" x2="57.99" y2="17.22"/><line class="cls-2" x1="70.79" y1="111.61" x2="-17.99" y2="22.83"/><line class="cls-2" x1="-34.79" y1="106" x2="53.99" y2="17.22"/><line class="cls-2" x1="66.79" y1="111.61" x2="-21.99" y2="22.83"/><line class="cls-2" x1="-38.79" y1="106" x2="49.99" y2="17.22"/><line class="cls-2" x1="62.79" y1="111.61" x2="-25.99" y2="22.83"/><line class="cls-2" x1="-42.79" y1="106" x2="45.99" y2="17.22"/><line class="cls-2" x1="58.79" y1="111.61" x2="-29.99" y2="22.83"/><line class="cls-2" x1="-46.79" y1="106" x2="41.99" y2="17.22"/><line class="cls-2" x1="54.79" y1="111.61" x2="-33.99" y2="22.83"/><line class="cls-2" x1="-50.79" y1="106" x2="37.99" y2="17.22"/><line class="cls-2" x1="50.79" y1="111.61" x2="-37.99" y2="22.83"/><line class="cls-2" x1="-54.79" y1="106" x2="33.99" y2="17.22"/><line class="cls-2" x1="46.79" y1="111.61" x2="-41.99" y2="22.83"/><line class="cls-2" x1="-58.79" y1="106" x2="29.99" y2="17.22"/><line class="cls-2" x1="42.79" y1="111.61" x2="-45.99" y2="22.83"/><line class="cls-2" x1="-62.79" y1="106" x2="25.99" y2="17.22"/><line class="cls-2" x1="38.79" y1="111.61" x2="-49.99" y2="22.83"/><line class="cls-2" x1="-16.79" y1="89.9" x2="71.99" y2="1.12"/><line class="cls-2" x1="84.79" y1="95.51" x2="-3.99" y2="6.73"/><line class="cls-2" x1="-18.79" y1="73.79" x2="69.99" y2="-14.99"/><line class="cls-2" x1="82.79" y1="79.4" x2="-5.99" y2="-9.38"/><line class="cls-2" x1="-20.79" y1="89.9" x2="67.99" y2="1.12"/><line class="cls-2" x1="80.79" y1="95.51" x2="-7.99" y2="6.73"/><line class="cls-2" x1="-22.79" y1="73.79" x2="65.99" y2="-14.99"/><line class="cls-2" x1="78.79" y1="79.4" x2="-9.99" y2="-9.38"/><line class="cls-2" x1="-24.79" y1="89.9" x2="63.99" y2="1.12"/><line class="cls-2" x1="76.79" y1="95.51" x2="-11.99" y2="6.73"/><line class="cls-2" x1="-26.79" y1="73.79" x2="61.99" y2="-14.99"/><line class="cls-2" x1="74.79" y1="79.4" x2="-13.99" y2="-9.38"/><line class="cls-2" x1="-28.79" y1="89.9" x2="59.99" y2="1.12"/><line class="cls-2" x1="72.79" y1="95.51" x2="-15.99" y2="6.73"/><line class="cls-2" x1="-30.79" y1="73.79" x2="57.99" y2="-14.99"/><line class="cls-2" x1="70.79" y1="79.4" x2="-17.99" y2="-9.38"/><line class="cls-2" x1="-32.79" y1="89.9" x2="55.99" y2="1.12"/><line class="cls-2" x1="68.79" y1="95.51" x2="-19.99" y2="6.73"/><line class="cls-2" x1="-34.79" y1="73.79" x2="53.99" y2="-14.99"/><line class="cls-2" x1="66.79" y1="79.4" x2="-21.99" y2="-9.38"/><line class="cls-2" x1="-36.79" y1="89.9" x2="51.99" y2="1.12"/><line class="cls-2" x1="64.79" y1="95.51" x2="-23.99" y2="6.73"/><line class="cls-2" x1="-38.79" y1="73.79" x2="49.99" y2="-14.99"/><line class="cls-2" x1="62.79" y1="79.4" x2="-25.99" y2="-9.38"/><line class="cls-2" x1="-40.79" y1="89.9" x2="47.99" y2="1.12"/><line class="cls-2" x1="60.79" y1="95.51" x2="-27.99" y2="6.73"/><line class="cls-2" x1="-42.79" y1="73.79" x2="45.99" y2="-14.99"/><line class="cls-2" x1="58.79" y1="79.4" x2="-29.99" y2="-9.38"/><line class="cls-2" x1="-44.79" y1="89.9" x2="43.99" y2="1.12"/><line class="cls-2" x1="56.79" y1="95.51" x2="-31.99" y2="6.73"/><line class="cls-2" x1="-46.79" y1="73.79" x2="41.99" y2="-14.99"/><line class="cls-2" x1="54.79" y1="79.4" x2="-33.99" y2="-9.38"/><line class="cls-2" x1="-48.79" y1="89.9" x2="39.99" y2="1.12"/><line class="cls-2" x1="52.79" y1="95.51" x2="-35.99" y2="6.73"/><line class="cls-2" x1="-50.79" y1="73.79" x2="37.99" y2="-14.99"/><line class="cls-2" x1="50.79" y1="79.4" x2="-37.99" y2="-9.38"/><line class="cls-2" x1="-52.79" y1="89.9" x2="35.99" y2="1.12"/><line class="cls-2" x1="48.79" y1="95.51" x2="-39.99" y2="6.73"/><line class="cls-2" x1="-54.79" y1="73.79" x2="33.99" y2="-14.99"/><line class="cls-2" x1="46.79" y1="79.4" x2="-41.99" y2="-9.38"/><line class="cls-2" x1="-56.79" y1="89.9" x2="31.99" y2="1.12"/><line class="cls-2" x1="44.79" y1="95.51" x2="-43.99" y2="6.73"/><line class="cls-2" x1="-58.79" y1="73.79" x2="29.99" y2="-14.99"/><line class="cls-2" x1="42.79" y1="79.4" x2="-45.99" y2="-9.38"/><line class="cls-2" x1="-60.79" y1="89.9" x2="27.99" y2="1.12"/><line class="cls-2" x1="40.79" y1="95.51" x2="-47.99" y2="6.73"/><line class="cls-2" x1="-62.79" y1="73.79" x2="25.99" y2="-14.99"/><line class="cls-2" x1="38.79" y1="79.4" x2="-49.99" y2="-9.38"/><line class="cls-2" x1="-64.79" y1="89.9" x2="23.99" y2="1.12"/><line class="cls-2" x1="36.79" y1="95.51" x2="-51.99" y2="6.73"/><line class="cls-2" x1="-16.79" y1="57.69" x2="71.99" y2="-31.09"/><line class="cls-2" x1="84.79" y1="63.3" x2="-3.99" y2="-25.48"/><line class="cls-2" x1="-18.79" y1="41.58" x2="69.99" y2="-47.2"/><line class="cls-2" x1="82.79" y1="47.2" x2="-5.99" y2="-41.58"/><line class="cls-2" x1="-20.79" y1="57.69" x2="67.99" y2="-31.09"/><line class="cls-2" x1="80.79" y1="63.3" x2="-7.99" y2="-25.48"/><line class="cls-2" x1="-22.79" y1="41.58" x2="65.99" y2="-47.2"/><line class="cls-2" x1="78.79" y1="47.2" x2="-9.99" y2="-41.58"/><line class="cls-2" x1="-24.79" y1="57.69" x2="63.99" y2="-31.09"/><line class="cls-2" x1="76.79" y1="63.3" x2="-11.99" y2="-25.48"/><line class="cls-2" x1="-26.79" y1="41.58" x2="61.99" y2="-47.2"/><line class="cls-2" x1="74.79" y1="47.2" x2="-13.99" y2="-41.58"/><line class="cls-2" x1="-28.79" y1="57.69" x2="59.99" y2="-31.09"/><line class="cls-2" x1="72.79" y1="63.3" x2="-15.99" y2="-25.48"/><line class="cls-2" x1="-30.79" y1="41.58" x2="57.99" y2="-47.2"/><line class="cls-2" x1="70.79" y1="47.2" x2="-17.99" y2="-41.58"/><line class="cls-2" x1="-32.79" y1="57.69" x2="55.99" y2="-31.09"/><line class="cls-2" x1="68.79" y1="63.3" x2="-19.99" y2="-25.48"/><line class="cls-2" x1="-34.79" y1="41.58" x2="53.99" y2="-47.2"/><line class="cls-2" x1="66.79" y1="47.2" x2="-21.99" y2="-41.58"/><line class="cls-2" x1="-36.79" y1="57.69" x2="51.99" y2="-31.09"/><line class="cls-2" x1="64.79" y1="63.3" x2="-23.99" y2="-25.48"/><line class="cls-2" x1="-38.79" y1="41.58" x2="49.99" y2="-47.2"/><line class="cls-2" x1="62.79" y1="47.2" x2="-25.99" y2="-41.58"/><line class="cls-2" x1="-40.79" y1="57.69" x2="47.99" y2="-31.09"/><line class="cls-2" x1="60.79" y1="63.3" x2="-27.99" y2="-25.48"/><line class="cls-2" x1="-42.79" y1="41.58" x2="45.99" y2="-47.2"/><line class="cls-2" x1="58.79" y1="47.2" x2="-29.99" y2="-41.58"/><line class="cls-2" x1="-44.79" y1="57.69" x2="43.99" y2="-31.09"/><line class="cls-2" x1="56.79" y1="63.3" x2="-31.99" y2="-25.48"/><line class="cls-2" x1="-46.79" y1="41.58" x2="41.99" y2="-47.2"/><line class="cls-2" x1="54.79" y1="47.2" x2="-33.99" y2="-41.58"/><line class="cls-2" x1="-48.79" y1="57.69" x2="39.99" y2="-31.09"/><line class="cls-2" x1="52.79" y1="63.3" x2="-35.99" y2="-25.48"/><line class="cls-2" x1="-50.79" y1="41.58" x2="37.99" y2="-47.2"/><line class="cls-2" x1="50.79" y1="47.2" x2="-37.99" y2="-41.58"/><line class="cls-2" x1="-52.79" y1="57.69" x2="35.99" y2="-31.09"/><line class="cls-2" x1="48.79" y1="63.3" x2="-39.99" y2="-25.48"/><line class="cls-2" x1="-54.79" y1="41.58" x2="33.99" y2="-47.2"/><line class="cls-2" x1="46.79" y1="47.2" x2="-41.99" y2="-41.58"/><line class="cls-2" x1="-56.79" y1="57.69" x2="31.99" y2="-31.09"/><line class="cls-2" x1="44.79" y1="63.3" x2="-43.99" y2="-25.48"/><line class="cls-2" x1="-58.79" y1="41.58" x2="29.99" y2="-47.2"/><line class="cls-2" x1="42.79" y1="47.2" x2="-45.99" y2="-41.58"/><line class="cls-2" x1="-60.79" y1="57.69" x2="27.99" y2="-31.09"/><line class="cls-2" x1="40.79" y1="63.3" x2="-47.99" y2="-25.48"/><line class="cls-2" x1="-62.79" y1="41.58" x2="25.99" y2="-47.2"/><line class="cls-2" x1="38.79" y1="47.2" x2="-49.99" y2="-41.58"/><line class="cls-2" x1="-64.79" y1="57.69" x2="23.99" y2="-31.09"/><line class="cls-2" x1="36.79" y1="63.3" x2="-51.99" y2="-25.48"/><line class="cls-2" x1="-16.79" y1="25.48" x2="71.99" y2="-63.3"/><line class="cls-2" x1="84.79" y1="31.09" x2="-3.99" y2="-57.69"/><line class="cls-2" x1="-18.79" y1="9.38" x2="69.99" y2="-79.4"/><line class="cls-2" x1="82.79" y1="14.99" x2="-5.99" y2="-73.79"/><line class="cls-2" x1="-20.79" y1="25.48" x2="67.99" y2="-63.3"/><line class="cls-2" x1="80.79" y1="31.09" x2="-7.99" y2="-57.69"/><line class="cls-2" x1="-22.79" y1="9.38" x2="65.99" y2="-79.4"/><line class="cls-2" x1="78.79" y1="14.99" x2="-9.99" y2="-73.79"/><line class="cls-2" x1="-24.79" y1="25.48" x2="63.99" y2="-63.3"/><line class="cls-2" x1="76.79" y1="31.09" x2="-11.99" y2="-57.69"/><line class="cls-2" x1="-26.79" y1="9.38" x2="61.99" y2="-79.4"/><line class="cls-2" x1="74.79" y1="14.99" x2="-13.99" y2="-73.79"/><line class="cls-2" x1="-28.79" y1="25.48" x2="59.99" y2="-63.3"/><line class="cls-2" x1="72.79" y1="31.09" x2="-15.99" y2="-57.69"/><line class="cls-2" x1="-30.79" y1="9.38" x2="57.99" y2="-79.4"/><line class="cls-2" x1="70.79" y1="14.99" x2="-17.99" y2="-73.79"/><line class="cls-2" x1="-32.79" y1="25.48" x2="55.99" y2="-63.3"/><line class="cls-2" x1="68.79" y1="31.09" x2="-19.99" y2="-57.69"/><line class="cls-2" x1="-34.79" y1="9.38" x2="53.99" y2="-79.4"/><line class="cls-2" x1="66.79" y1="14.99" x2="-21.99" y2="-73.79"/><line class="cls-2" x1="-36.79" y1="25.48" x2="51.99" y2="-63.3"/><line class="cls-2" x1="64.79" y1="31.09" x2="-23.99" y2="-57.69"/><line class="cls-2" x1="-38.79" y1="9.38" x2="49.99" y2="-79.4"/><line class="cls-2" x1="62.79" y1="14.99" x2="-25.99" y2="-73.79"/><line class="cls-2" x1="-40.79" y1="25.48" x2="47.99" y2="-63.3"/><line class="cls-2" x1="60.79" y1="31.09" x2="-27.99" y2="-57.69"/><line class="cls-2" x1="-42.79" y1="9.38" x2="45.99" y2="-79.4"/><line class="cls-2" x1="58.79" y1="14.99" x2="-29.99" y2="-73.79"/><line class="cls-2" x1="-44.79" y1="25.48" x2="43.99" y2="-63.3"/><line class="cls-2" x1="56.79" y1="31.09" x2="-31.99" y2="-57.69"/><line class="cls-2" x1="-46.79" y1="9.38" x2="41.99" y2="-79.4"/><line class="cls-2" x1="54.79" y1="14.99" x2="-33.99" y2="-73.79"/><line class="cls-2" x1="-48.79" y1="25.48" x2="39.99" y2="-63.3"/><line class="cls-2" x1="52.79" y1="31.09" x2="-35.99" y2="-57.69"/><line class="cls-2" x1="-50.79" y1="9.38" x2="37.99" y2="-79.4"/><line class="cls-2" x1="50.79" y1="14.99" x2="-37.99" y2="-73.79"/><line class="cls-2" x1="-52.79" y1="25.48" x2="35.99" y2="-63.3"/><line class="cls-2" x1="48.79" y1="31.09" x2="-39.99" y2="-57.69"/><line class="cls-2" x1="-54.79" y1="9.38" x2="33.99" y2="-79.4"/><line class="cls-2" x1="46.79" y1="14.99" x2="-41.99" y2="-73.79"/><line class="cls-2" x1="-56.79" y1="25.48" x2="31.99" y2="-63.3"/><line class="cls-2" x1="44.79" y1="31.09" x2="-43.99" y2="-57.69"/><line class="cls-2" x1="-58.79" y1="9.38" x2="29.99" y2="-79.4"/><line class="cls-2" x1="42.79" y1="14.99" x2="-45.99" y2="-73.79"/><line class="cls-2" x1="-60.79" y1="25.48" x2="27.99" y2="-63.3"/><line class="cls-2" x1="40.79" y1="31.09" x2="-47.99" y2="-57.69"/><line class="cls-2" x1="-62.79" y1="9.38" x2="25.99" y2="-79.4"/><line class="cls-2" x1="38.79" y1="14.99" x2="-49.99" y2="-73.79"/><line class="cls-2" x1="-64.79" y1="25.48" x2="23.99" y2="-63.3"/><line class="cls-2" x1="36.79" y1="31.09" x2="-51.99" y2="-57.69"/></pattern></defs><title>map</title><g id="Layer_1" data-name="Layer 1"><path class="cls-3" d="M1635.69-14.44V1302.61H-428.93V434.26C-208,416.93,9.91,344.89,204.17,265.46c39.94-17.51,75.89-35,115.83-55C447.82,142.91,543.69,70.38,683.49,10.36c20.76-8.36,40.43-16.71,59.8-24.8Z"/><path class="cls-4" d="M677.36,192.78s-46.48,26.74-56.67,29.92c-10.81,3.38-10.79,3.4-241.94,86,0,0-13.37,6.37-21.65,3.82s-13.48-7.11-17.93-13.48-8.28-14-3.82-22.28,33.21-15.81,33.21-15.81,45.53-16.52,51.25-16.39c0,0,11.13-1.28,14-2.55,3.22-1.41,11.94-3.66,16.71-11s20.69-28.17,23.56-30.4,25.95-17.67,43.61-22.92,71.31-22.13,77.52-24.51,11.3-5.25,15-4.93a61.83,61.83,0,0,0,8.28,0s-.64,7.19-.16,10.53,1.27,9.07,5.89,12.1,12.42,8.75,12.42,8.75,5.09,3.5,15.44,5.73,20.53,4.3,20.53,4.3a4.9,4.9,0,0,1,3.5,1.59Z"/><path class="cls-4" d="M663.2,175.75s-7.8-11.14-12.89-16.24-11.46-10.4-14.33-11.33-4-.93-4.93-.77-2.08,1.45-2.39,4c-.36,2.94-1.27,5.25,1,8a41.28,41.28,0,0,0,8.6,8.28c5,3.26,5.51,4,10.51,5.41,3.49,1,13.29,4.05,13.29,4.05Z"/><path class="cls-4" d="M558.3,561.22a153.5,153.5,0,0,0-14.86,5.52c-4.67,1.91-10.61,2.12-11.25,1.49s-.86-2.7,1.27-5.73c4-5.73,11.53-36.93,11.25-49.24-.3-13.13,2.76-10.82,2.76-10.82s10.82.42,13.58-2.33,7-8.06,11.89-8.7,11.89,0,13.58-1.06a5.59,5.59,0,0,0,3-5.31,6,6,0,0,0-5.73-5.52c-3.4,0-9.85-.13-12,.62-1.85.64-5.55,5-8.14,6.39a11.37,11.37,0,0,1-8.28.64,2.54,2.54,0,0,1-1.49-4c1.06-1.7,16.34-13.58,22.71-17.62s10.4-6.15,11-9.55a9.07,9.07,0,0,0-.42-6.37c-1.49-3.82-4.88-13.37-4.88-13.37a42.82,42.82,0,0,1-2.33-6.15c-.21-1.49-2.33-1.7,6.58-7.43S626,402.68,631.31,398s9.55-12.52,15.28-18.46,9.55-7.85,17.62-8.49,18,2.33,24,2.33c3.21,0,12,2.42,20.08,1.34,11.93-1.6,7.72-1.49,13.45-5.37L775.8,524.64s-14.61,9-21.61,11.53-17.83,1.06-18.89,1.91a7.66,7.66,0,0,0-2.12,5.31c0,2.12-1.7,2.55,2.33,3.61s17,.42,22.71-2.33,21.44-11.25,21.44-11.25l28.65,83.2s-25.26,1.7-28.23-1.49S774.51,603.42,771,596c-3.42-7.12-5.73-9.15-9.77-9.57s-19.08,1.74-24.17,2.8-16.58,6.35-22.09,8.26-14.64,1.7-18.46,1.06S678,597.3,674,595.81s-3-4-9.34-4-21.52.1-23.13.11a25.22,25.22,0,0,0-5.08.93c-1.91.42-4,1-4.66,1.58a3,3,0,0,0-1.3,2.48,6.27,6.27,0,0,0,.43,3.29c.42,1.06,2.12,1.37,2.76,1.37a36,36,0,0,0,7,.42c3.82-.21,8.23-.26,13.84-.21s10.78.21,12.69.84.85,1.27,7.43,2.55,22.5,3.61,30.14,3.18A78.89,78.89,0,0,0,729.15,603c7.85-3.18,17.19-5.73,22.07-5.73s8.06-.85,9.76.64,4.88,8.28,6.37,13.8,2.12,8.28,3.61,10.61,6.37,3.61,11.89,4,27.38-.85,29.08,0,16.34,52.85,16.34,52.85,30.35,91.68,31,97.84,3.82,26.53,2.33,36.93-8.06,74.92-8.7,81.07-11.46,103.14-11.46,103.14-51.57.64-53.48,0-5.52-3.61-8.49-10.19-9.55-21.86-12.95-32-20-56.56-25.47-66.64c-5.71-10.5-11.2-20.54-21.63-30.54-5.24-5-49.66-39.26-63.67-46.27s-18.91-10.63-29.31-13.18-45.63-4.88-52.42-4.88-20.59-.85-22.71-2.76-24.83-28-29.71-33.32-14.22-11.67-15.49-14.22-2.55-124.65-1.7-130,13.53-32.56,19.68-33.62,10-.69,13.21,1.43,9.34,7,12.31,7.43,25.68,1.91,27.17,1.27,4-2.14,4-4.05-.65-3.37-1.92-4-.21-.85-5.09-.85-17.62,1.27-21.44-.21-3.05-3-3.18-4.46c-.41-4.69,6.81-4.48,13.37-6.79,0,0,7.48-2.47,10.11-4.64a12.35,12.35,0,0,0,2.88-1.56c1.19-1-.49-3-1.24-4.08a7.83,7.83,0,0,0-1.23-1.57c-.58-.49-.53-1.17-2.28-.85S558.3,561.22,558.3,561.22Z"/><path class="cls-4" d="M494.28,637.6s-2.62.66-7.29,4.05-3.82,6.79-3.82,6.79l1.27,2.55h9.34a10.13,10.13,0,0,1,1.27,4.67c0,2.55,2.12,74.28,1.27,76.83s0,6.79-4.24,8.91c-1,.48-14.66.45-32.9,6.24,0,0-27.8-70.76-38-99.62-8.68-24.59-22.68-64.92-27.17-75.93-1-2.43.85-3,.85-3s41.17-23.35,62.4-31.41,55.18-22.07,64.52-25,13.58-5.52,13.58-5.52A142.26,142.26,0,0,1,532.62,537c-2.48,11.95-8.3,25.13-11.25,29.92C514.58,578,505.24,589,501,596.66c0,0-5.73,11.46-5.94,22.07S494.28,637.6,494.28,637.6Z"/><path class="cls-5" d="M1056.28,497.1,937.43,530.21s-28.3,9.87-32.33,11.46c-6.32,2.49-22.92,26.42-27.06,30.56,0,0-6.37,7.64-10.19,9.87s-18.46,7-25.15,10.19-18.27,7.34-18.27,7.34l50.09,158.75s7.64,17,7.64,51.78l-3.4,26.32-24.3,211.38.85,3.71,40.75-4.24,64.18,3.59"/><path class="cls-5" d="M464.49,758.7l34-7.11,44.14,50.09s70.51,2.34,83.86,7.09c12.59,4.48,74.21,44.53,80.84,51.49,25.7,27,29.5,40.43,41.6,80.65,5.88,19.55,9.06,27.14,10.64,30.08a2.05,2.05,0,0,1-1,2.86l-30.82,12.9,5.94,17,34-14.75s5.55,13.8,10.13,19l3.45,2.07,3.34,1.33h54.33l-1.8,27.06s-113.65,34.91-128.93,38.31-48.39,4.24-73,0-91.68-7.64-91.68-7.64-19.1-3-21.65-10.61c0,0-10.46-54.87-23.35-112.06C484.87,886.15,482.32,819.93,477.23,803S464.49,758.7,464.49,758.7Z"/><path class="cls-4" d="M517.87,1095.88c22.87-3,46.81-5.45,60.7-6.1,27.38-1.27,63,4.46,91.68,5.09s59.85-8.28,59.85-8.28l54.12-18.89,21-5.31,31.41-7.85.42-6.69-89.94,29.92-5.45,1.81s-6.51,1.83-15.5,4c-13.61,3.33-32.91,7.53-43.91,7.53-18.27,0-36.09-5.09-60.29-6.37s-62.4-5.29-73.86-5.19-20.37-.1-25.47-5.09c0,0-12.73-5-15.92-19s-21-115.88-21-115.88-10.19-62.4-11.46-75.13-4.78-58.25-10.93-74.81-82-213.94-82-220.3a4.74,4.74,0,0,1,1.06-3.41c3.37-4.85,13.43-9.8,13.43-9.8l36.24-20s80.65-32.47,86.38-34.59A56.28,56.28,0,0,0,534.11,492c3.61-3.18,3-6.79,3-8.49s-11.89-19.1-14.22-22.71-7-4.46-7-4.46-7,.21-9.13.85-12.31,9.76-17.4,13.16-24,13.16-24,13.16-36.5,19.31-40.54,20.37-5.31,1.49-5.31,1.49a6.21,6.21,0,0,1-4-1.91c-1.91-1.91-4.67-9.76-6.79-16.34S401,468,399.34,465.29s-29.29-43.93-31-46.9a18.25,18.25,0,0,1-2.33-7.85,6.94,6.94,0,0,1,2.55-4.67c1.49-1.27,3.18-1.7,7.64-2.76s9.13-1.7,11.46-2.12,24.41-.85,24.41-.85S436.86,400,440.3,398c4.19-2.39,8.7-5.52,8.7-5.52l24-.21a8.17,8.17,0,0,1,2.76,3.4c1.27,2.55-.21,3.61-1.06,5.09s-4,1.91-7.22,2.33-14.43.21-16.55.64-3.82,1.49-3.82,3.18,18.68,58.36,21.65,60.06,3.4,1.49,7,.42,26.76-20.3,28.44-21c2.64-1.11,19.95-.21,19.95-.21a37.6,37.6,0,0,0,4.67-3.82,11,11,0,0,1,3.82-1.27,5.62,5.62,0,0,0,2.76-3c1.06-2.33-1.06-17-.42-19.1s13.58-25.26,16.13-29.29a137.36,137.36,0,0,1,8.49-11l1.7-1.27h2.33l2.33.21a8,8,0,0,1,1.7,2.55c.42,1.27-.42,3-1.49,5.73s-4.88,6.15-9.13,12.52-8.91,17.83-11.25,23.56,1.49,12.73.42,17.4a45,45,0,0,1-3.18,8.91c-1.7,3-9.13,3.18-9.13,3.18a7.75,7.75,0,0,0-1.91,3s.65,6.19,2.24,8.26,5.73,5.57,9.07,8.28,9-.73,7.32.48c-.81.57,5.66-4,6-4.14l17.76-12.24c2.55-2.12,2.33-2.55,2.55-6.37s-8.91-23.13-8.91-23.13-.21-2.55.85-3.4,22.07-15.28,27.8-18.68c5.08-3,20.71-9.61,28.65-13.58,7.22-3.61,5.73-7.22,10.19-13.37s11.67-10,15.07-12.31,7.43-3.82,16.13-4,19.53,2.12,30.14,2.48A54.61,54.61,0,0,0,717.26,359s-38.63-105.69-42-115-.21-16.34.42-18.89,4.88-8.06,9.55-13.37,7-8.91,7-9.76-1.27-1.27-1.7-2.12-2.12-.42-4,0-38.2,21.22-43.08,24-162.78,59.64-162.78,59.64l-80.44,29.5s-29.08,10-38.2,11.67a24.26,24.26,0,0,1-20.69-5.2c-5.09-4-11.89-14.43-16.34-22.71s-1.27-15.71-1.49-21,7-10.82,10.61-14S351.16,255,359,251.57s33.32-13.37,44.14-15.71,24.41-4.46,28-4.88S441.36,225,446,218.89s18.25-23.77,22.92-28.23,27.59-16.13,34.17-18.46S595.87,140.79,605,138.88s29.29-1.7,32.26-1.49a13.91,13.91,0,0,1,6.15,1.7c2.33,1.06,15.28,15.28,19.95,20.37s13.16,18.25,16.13,21.65a16.51,16.51,0,0,0,8.7,5.09c2.33.64,6.79,3.61,12.06,5.52s21.05-1.49,21.05-1.49l61.59-22.13L855.4,140.3"/><path class="cls-4" d="M4.78,1209.89s105.37-18.15,112.38-21.33S237.94,1163,280,1159.82s78.31-14.64,96.14-21,68.13-28,88.39-33.74a174.66,174.66,0,0,1,18.88-4"/><path class="cls-4" d="M1078.39,479.22,949.32,514.93s-40,13.24-45.17,15.92c-8.13,4.19-11.78,9.87-15.92,15.6S871,569,865,572.87a126.49,126.49,0,0,1-24.51,11.46c-9.23,3.18-12.1,5.09-14.64,4.78s-5.21-.93-5.21-.93S714.93,285.1,706,258.36s-6.37-29.29,0-36.93,16.55-8.91,16.55-8.91,22.32-8.44,37.95-14.63c12-4.75,23.48-8.58,30.78-11.9l79.95-33.53L907,137.26"/><path class="cls-4" d="M460.25,473.14s-19.95-55.82-21-57.94a34.94,34.94,0,0,1-1.91-6.79s-26.32,1.7-32,1.27-10.4.85-15.49,1.91-11.89,2.33-11.89,2.33l13.58,23.56s9.76,12.31,12.95,18,10.82,21,12.95,26.74,4.46,11,4.46,11Z"/><path class="cls-5" d="M489.3,1121.93c-20,4.19-43,9.67-55.9,14.54-19.1,7.22-71.31,28.44-87.86,33.11s-53.48,11-70,11-56.88,5.09-78.1,8.06-94,24.49-94,24.49L23.13,1228"/><path class="cls-5" d="M951.44,1072.25s-69.23-4.12-89.47-.3-97.49,22.92-109.37,25.89-41.6,12.31-50.51,12.31-76.4,1.7-110.36,2.12c-30,.38-51.55,1.18-68.6,3.46"/><line class="cls-4" x1="421.56" y1="760.16" x2="448.83" y2="751.59"/><path class="cls-4" d="M-77.68,917.32s50.3-14.64,87.23-23.56,197.19-62.48,197.19-62.48l186-62.06,3.38-1.06"/><path class="cls-4" d="M389.19,780.16l40.9,94L372.28,693.76S344.9,578.52,320.07,536.49s-62.4-93-89.77-108.24-63-30.56-93-33.74-96.59,7.09-117,10.91L0,409.24"/><path class="cls-4" d="M423.59,768.16l18.09-6.28h1.71c0,11.74,2.56,27.22,2.56,27.22l2.88,79S385,614.81,381.19,602.71s-20.37-77.25-32.47-95.61-38.05-65.34-72.58-92.85c-37.57-29.92-92.77-65.5-170.45-67.41S20.37,343,20.37,343"/><path class="cls-4" d="M299.84,1157.67l-81-159.19s104.8-27.4,107.6-29,7.23-4.85,7.23-4.85,1.39-.93,4.87-.88c5.13.07,13.37-1.91,25.47-3.18s39.48-11.46,47.12-14.64,5.09-10.54,5.09-10.54-22.92-65.23-26.1-70.32-21.65-22.28-28.65-24.19S294.6,858,294.6,858l-12.1-40.11,103.14-36.36,9.42-3.72,3.73-1.28"/><path class="cls-4" d="M299.88,867s53.93-18.55,58.39-16.64,17.83,10.82,24.83,25.47,24.19,58.51,23.56,59.5S367.46,951.26,358,952.83c-8.89,1.48-14.27,1.1-15.75-.66a41,41,0,0,1-4.67-6.79l-2.89-4.58S311.16,901.32,307.34,895,299.88,867,299.88,867Z"/><path class="cls-4" d="M276.78,821.1,146.89,861.21l65.26,129.25s99.29-25.91,105.58-29.29c6.08-3.27,16.35-10.19,12.53-16.55s-27-41.39-30.37-49-4.77-21.14-6.22-24.53c-1.61-3.75-2.88-5.39-4.15-10.48S276.78,821.1,276.78,821.1Z"/><line class="cls-4" x1="483.38" y1="1101.07" x2="570.24" y2="1406.95"/><path class="cls-4" d="M370.61,786.86s53.24,110.64,60.88,135.47,51.88,178.73,51.88,178.73"/><path class="cls-4" d="M23.13,900.13l111-35.1s145.68,280.08,149,287.15l3.31,7.07"/><path class="cls-6" d="M-9.55,452.53s13.37-3.82,80.86-17.83,110.6-5.82,133.52,1.19,66.22,59.21,85.32,87.23,35.66,79,44.57,112.7,3.18,73.22-11.46,114-96.14,68.76-135,79S33.74,877.85,33.74,877.85L-101.94,915.6"/><path class="cls-7" d="M-6.66,451.78c6.68-1.68,26.72-6.44,78-17.07,67.49-14,110.6-5.82,133.52,1.19s66.22,59.21,85.32,87.23,35.66,79,44.57,112.7,3.18,73.22-11.46,114-96.14,68.76-135,79S33.74,877.85,33.74,877.85L-100,915.06"/><polygon class="cls-8" points="588.98 634.06 522.71 646.15 531 686.03 631.77 688.2 646.23 661.16 646.23 622.75 634.62 624.25 619.24 616.55 602.29 630.68 588.98 634.06 588.98 634.06"/><polygon class="cls-8" points="696.24 637.12 673.86 632.7 658.94 632.7 654.24 651.74 654.52 669.18 650.33 689.11 666.4 702.15 675.8 702.78 713.65 698.19 734.93 683.92 743.24 668.12 754.51 647.62 737.69 644.86 729.13 651.74 721.39 649.56 715.86 653.98 720.01 661.99 710.06 675.26 703.48 646.24 703.43 642.1 696.24 637.12 696.24 637.12"/><path class="cls-9" d="M745.33-14.44C726-6.35,706.29,2,685.53,10.36,545.74,70.38,449.86,142.91,322,210.44c-39.95,20-75.89,37.51-115.83,55C12,344.89-205.94,416.93-426.89,434.26V-14.44Z"/><path class="cls-10" d="M743.28-14.44c-19.36,8.09-39,16.45-59.8,24.8C543.69,70.38,447.82,142.91,320,210.44c-39.95,20-75.89,37.51-115.83,55C9.91,344.89-208,416.93-428.93,434.26V-14.44Z"/><polygon class="cls-11" points="257.38 348.05 344.39 249.44 431.17 230.99 492.24 177.1 628.16 125.93 663.36 159.46 859.25 777.06 837.07 1047.87 726.17 1083.63 502.6 1075.36 488.69 850.25 421.12 678.67 348.72 507.1 257.38 348.05"/></g></svg>