<?xml version="1.0" standalone="no"?>
<!DOCTYPE svg PUBLIC "-//W3C//DTD SVG 20010904//EN"
 "http://www.w3.org/TR/2001/REC-SVG-20010904/DTD/svg10.dtd">
<svg version="1.0" xmlns="http://www.w3.org/2000/svg"
 width="260.000000pt" height="260.000000pt" viewBox="0 0 260.000000 260.000000"
 preserveAspectRatio="xMidYMid meet">
<metadata>
Created by potrace 1.11, written by Peter Selinger 2001-2013
</metadata>
<g transform="translate(0.000000,260.000000) scale(0.100000,-0.100000)"
fill="#000000" stroke="none">
<path d="M223 2116 c-91 -29 -147 -80 -190 -171 -28 -60 -28 -61 -28 -270 0
-198 1 -213 23 -260 27 -58 69 -105 132 -145 66 -43 109 -56 365 -111 127 -27
238 -52 247 -55 43 -13 48 -30 48 -158 0 -106 -2 -125 -18 -139 -16 -15 -47
-17 -228 -17 -166 0 -214 3 -230 14 -16 12 -20 29 -22 110 l-4 96 -156 -2
-157 -3 1 -140 c1 -117 5 -149 23 -196 28 -74 95 -141 169 -171 55 -22 66 -23
382 -23 l325 0 63 29 c70 32 124 86 156 155 20 43 21 62 21 281 0 231 0 236
-25 284 -32 62 -98 121 -175 157 -35 16 -149 47 -270 73 -309 68 -306 67 -326
87 -16 16 -19 35 -19 124 0 99 2 107 25 130 24 25 26 25 213 25 237 0 232 3
239 -123 l6 -87 153 0 154 0 0 135 c0 164 -18 223 -87 292 -85 86 -94 88 -453
90 -240 2 -325 -1 -357 -11z"/>
<path d="M1697 2113 c-8 -13 -517 -1610 -517 -1622 0 -8 47 -11 167 -9 l166 3
32 110 c18 61 42 143 54 183 l22 72 261 -2 262 -3 33 -115 c19 -63 43 -145 54
-182 l20 -68 175 0 175 0 -7 23 c-7 22 -485 1523 -505 1585 l-11 32 -188 0
c-104 0 -191 -3 -193 -7z m278 -671 c43 -150 76 -275 73 -277 -3 -3 -80 -4
-170 -3 l-166 3 86 293 c55 190 88 287 93 275 3 -10 41 -141 84 -291z"/>
</g>
</svg>
